<?xml version="1.0" standalone="no"?>
<!DOCTYPE svg PUBLIC "-//W3C//DTD SVG 20010904//EN"
 "http://www.w3.org/TR/2001/REC-SVG-20010904/DTD/svg10.dtd">
<svg version="1.0" xmlns="http://www.w3.org/2000/svg"
 width="512.000000pt" height="512.000000pt" viewBox="0 0 512.000000 512.000000"
 preserveAspectRatio="xMidYMid meet">
<metadata>
Created by potrace 1.14, written by Peter Selinger 2001-2017
</metadata>
<g transform="translate(0.000000,512.000000) scale(0.100000,-0.100000)"
fill="#000000" stroke="none">
<path d="M3406 5061 c-12 -88 -68 -142 -163 -157 -43 -7 -56 -14 -27 -15 37
-1 70 -10 110 -30 33 -15 46 -30 63 -69 12 -27 21 -60 21 -74 0 -14 5 -28 10
-31 6 -4 10 8 10 27 0 19 12 57 26 85 27 55 55 72 149 91 l40 8 -50 8 c-101
16 -160 76 -167 170 -3 51 -14 45 -22 -13z"/>
<path d="M2234 5076 c-35 -16 -115 -122 -212 -282 -213 -353 -268 -656 -162
-890 15 -34 39 -78 53 -99 l25 -37 25 44 c35 61 89 194 89 221 0 12 -2 54 -5
92 -14 175 66 383 254 664 106 159 115 185 82 242 -18 30 -68 59 -100 59 -10
-1 -32 -7 -49 -14z"/>
<path d="M3931 4765 c-10 -73 -16 -96 -33 -133 -24 -51 -83 -89 -152 -98 -56
-8 -71 -24 -22 -24 43 0 117 -31 146 -62 28 -30 40 -59 55 -133 l12 -60 12 70
c22 125 84 178 218 188 37 2 16 14 -38 20 -74 9 -132 46 -158 102 -11 24 -21
55 -22 67 -1 26 -16 78 -18 63z"/>
<path d="M2775 4509 c-84 -9 -133 -24 -185 -57 -131 -85 -203 -221 -195 -375
17 -359 450 -520 706 -263 195 196 135 534 -116 655 -77 37 -135 48 -210 40z
m293 -621 c-75 -90 -175 -111 -258 -53 -23 16 -50 41 -61 56 l-20 28 23 -5
c113 -24 238 -25 303 0 22 8 42 15 44 15 2 1 -12 -18 -31 -41z"/>
<path d="M2340 4320 c-94 -51 -187 -168 -241 -305 -7 -16 -13 -34 -14 -40 -6
-22 -46 -118 -69 -163 -38 -74 -102 -150 -147 -173 -44 -22 -115 -27 -146 -11
-11 6 -25 7 -33 2 -12 -7 -5 -18 31 -52 57 -56 120 -77 214 -73 171 7 322 116
416 298 l43 84 -23 69 c-37 114 -25 265 29 358 27 45 15 46 -60 6z"/>
<path d="M3681 4085 c-7 -27 -19 -60 -27 -72 -22 -34 -74 -58 -139 -63 -11 -1
3 -7 30 -14 100 -25 121 -48 139 -153 1 -7 5 -15 9 -18 4 -3 5 -2 3 1 -10 13
28 110 50 131 23 22 79 42 119 44 11 0 -2 6 -30 13 -92 23 -118 49 -133 133
l-8 48 -13 -50z"/>
<path d="M2351 3710 c-50 -77 -135 -155 -209 -192 -37 -18 -70 -37 -74 -42
-15 -22 -18 -94 -4 -139 43 -143 194 -212 328 -150 l53 24 -25 -26 c-30 -32
-86 -62 -131 -70 -18 -3 -35 -7 -36 -9 -2 -1 2 -27 8 -57 6 -30 12 -98 15
-152 l4 -97 -71 -193 c-39 -105 -88 -241 -110 -302 -22 -60 -47 -126 -55 -145
-53 -132 -82 -229 -71 -238 46 -37 257 -120 352 -138 22 -4 42 -8 45 -9 26 -7
173 -19 245 -19 321 -3 755 144 932 317 l52 51 -22 21 c-12 12 -85 75 -161
141 -485 415 -449 379 -475 477 -10 41 -8 165 4 234 l8 43 -32 -11 c-68 -24
-172 10 -229 76 -42 47 -41 62 1 24 41 -38 125 -63 184 -55 118 16 203 112
206 233 1 29 5 53 8 53 16 0 131 -95 176 -145 96 -106 179 -287 203 -442 6
-38 13 -79 16 -93 2 -14 4 -103 4 -198 l0 -173 33 -35 c53 -58 142 -49 183 20
16 27 19 53 19 201 0 151 -10 298 -21 316 -2 4 -6 24 -10 45 -9 65 -73 245
-111 314 -119 215 -250 336 -488 450 l-109 52 -56 -13 c-30 -7 -89 -14 -129
-14 l-75 -1 -25 -60 c-31 -71 -91 -177 -124 -218 l-24 -30 -13 85 c-12 74 -16
216 -8 289 3 24 0 25 -62 31 -36 3 -71 8 -76 12 -6 3 -25 -16 -43 -43z"/>
<path d="M1700 2680 c0 -33 -21 -83 -49 -114 -23 -26 -60 -43 -110 -50 -44 -6
-67 -15 -40 -17 124 -7 199 -75 199 -180 0 -37 15 -38 18 -1 6 80 49 142 111
164 34 11 45 14 88 17 29 2 7 12 -38 17 -86 10 -134 54 -151 136 -13 62 -28
77 -28 28z"/>
<path d="M1189 2369 c-7 -137 -84 -221 -213 -231 -29 -3 -36 -18 -8 -19 45 -1
77 -9 117 -29 35 -17 49 -32 69 -73 14 -29 26 -69 28 -90 3 -55 15 -55 23 1
16 115 79 178 190 189 53 6 65 14 27 19 -147 21 -197 67 -217 198 -6 41 -14
60 -16 35z"/>
<path d="M2843 1731 c-50 -9 -133 -18 -185 -20 -51 -1 -96 -6 -99 -9 -4 -4
-25 -74 -48 -157 -23 -82 -48 -172 -56 -200 -54 -189 -345 -1254 -345 -1266 0
-19 26 -56 49 -68 29 -16 120 41 271 168 118 100 162 155 175 220 2 9 30 115
64 236 321 1164 309 1115 287 1114 -12 -1 -62 -9 -113 -18z"/>
<path d="M1430 1715 c0 -16 -10 -49 -21 -73 -25 -50 -70 -76 -144 -82 -11 -1
3 -7 30 -14 28 -7 62 -20 77 -30 28 -19 58 -81 58 -122 0 -36 15 -22 18 16 6
73 45 114 128 133 l59 14 -45 8 c-98 16 -126 46 -144 152 -4 26 -16 25 -16 -2z"/>
<path d="M2294 1714 c4 -16 11 -54 16 -84 5 -30 21 -120 35 -200 15 -80 27
-156 27 -169 1 -32 10 -12 31 64 9 33 37 132 62 219 25 88 43 162 40 164 -3 3
-17 7 -32 8 -16 2 -44 5 -63 8 -19 3 -55 8 -79 12 l-43 6 6 -28z"/>
<path d="M2746 742 c-37 -136 -74 -267 -81 -292 -8 -25 -19 -64 -25 -87 -6
-23 -28 -64 -49 -90 -21 -27 -37 -55 -36 -63 2 -8 6 -33 9 -55 9 -61 25 -91
52 -104 42 -19 59 -13 91 32 63 90 193 374 193 422 0 20 -45 293 -68 418 -5
26 -10 50 -10 53 -2 28 -18 -20 -76 -234z"/>
</g>
</svg>
